<?xml version="1.0" encoding="UTF-8"?> <svg xmlns="http://www.w3.org/2000/svg" width="220" height="60" viewBox="0 0 220 60" fill="none"><rect opacity="0.8" x="14" y="17" width="27" height="27" rx="5" fill="url(#paint0_linear)"></rect><path opacity="0.8" d="M0 30C0 20.6112 7.61116 13 17 13C26.3888 13 34 20.6112 34 30C34 39.3888 26.3888 47 17 47H3.09091C1.38385 47 0 45.6162 0 43.9091V30Z" fill="url(#paint1_linear)"></path><path d="M52.4395 22.3516H56.8779L59.2656 29.9541C59.3828 30.335 59.4902 30.6963 59.5879 31.0381C59.6953 31.3799 59.793 31.707 59.8809 32.0195C59.959 31.707 60.042 31.3799 60.1299 31.0381C60.2275 30.6963 60.3301 30.335 60.4375 29.9541L62.8252 22.3516H67.0293L69.417 29.9541C69.5342 30.335 69.6416 30.6963 69.7393 31.0381C69.8467 31.3799 69.9443 31.7119 70.0322 32.0342C70.1104 31.7119 70.1934 31.3799 70.2812 31.0381C70.3789 30.6963 70.4814 30.335 70.5889 29.9541L72.9766 22.3516H77.1514L72.2441 37H68.0693C67.5029 35.2812 66.9609 33.5918 66.4434 31.9316C65.9355 30.2715 65.457 28.5967 65.0078 26.9072C64.5879 28.6162 64.1045 30.3105 63.5576 31.9902C63.0107 33.6699 62.4199 35.3398 61.7852 37H57.3467L52.4395 22.3516Z" fill="#ffffff" fill-opacity="0.9"></path><path d="M78.7586 31.1406C78.7586 29.9688 79.0281 28.9258 79.5672 28.0117C80.1141 27.0898 80.8563 26.3672 81.7938 25.8438C82.7391 25.3125 83.8133 25.0469 85.0164 25.0469C86.2195 25.0469 87.2898 25.3125 88.2273 25.8438C89.1648 26.3672 89.9031 27.0898 90.4422 28.0117C90.9891 28.9258 91.2625 29.9688 91.2625 31.1406C91.2625 32.3125 90.9891 33.3594 90.4422 34.2812C89.9031 35.1953 89.1648 35.918 88.2273 36.4492C87.2898 36.9727 86.2195 37.2344 85.0164 37.2344C83.8133 37.2344 82.7391 36.9727 81.7938 36.4492C80.8563 35.918 80.1141 35.1953 79.5672 34.2812C79.0281 33.3594 78.7586 32.3125 78.7586 31.1406ZM82.0398 31.1406C82.0398 32.0469 82.3211 32.8008 82.8836 33.4023C83.4461 34.0039 84.157 34.3047 85.0164 34.3047C85.8758 34.3047 86.5867 34.0039 87.1492 33.4023C87.7117 32.8008 87.993 32.0469 87.993 31.1406C87.993 30.2344 87.7117 29.4805 87.1492 28.8789C86.5867 28.2773 85.8758 27.9766 85.0164 27.9766C84.157 27.9766 83.4461 28.2773 82.8836 28.8789C82.3211 29.4805 82.0398 30.2344 82.0398 31.1406Z" fill="#ffffff" fill-opacity="0.9"></path><path d="M93.0405 31.1406C93.0405 29.9688 93.31 28.9258 93.8491 28.0117C94.3959 27.0898 95.1381 26.3672 96.0756 25.8438C97.0209 25.3125 98.0952 25.0469 99.2983 25.0469C100.501 25.0469 101.572 25.3125 102.509 25.8438C103.447 26.3672 104.185 27.0898 104.724 28.0117C105.271 28.9258 105.544 29.9688 105.544 31.1406C105.544 32.3125 105.271 33.3594 104.724 34.2812C104.185 35.1953 103.447 35.918 102.509 36.4492C101.572 36.9727 100.501 37.2344 99.2983 37.2344C98.0952 37.2344 97.0209 36.9727 96.0756 36.4492C95.1381 35.918 94.3959 35.1953 93.8491 34.2812C93.31 33.3594 93.0405 32.3125 93.0405 31.1406ZM96.3217 31.1406C96.3217 32.0469 96.603 32.8008 97.1655 33.4023C97.728 34.0039 98.4389 34.3047 99.2983 34.3047C100.158 34.3047 100.869 34.0039 101.431 33.4023C101.994 32.8008 102.275 32.0469 102.275 31.1406C102.275 30.2344 101.994 29.4805 101.431 28.8789C100.869 28.2773 100.158 27.9766 99.2983 27.9766C98.4389 27.9766 97.728 28.2773 97.1655 28.8789C96.603 29.4805 96.3217 30.2344 96.3217 31.1406Z" fill="#ffffff" fill-opacity="0.9"></path><path d="M107.322 31.1406C107.322 29.9688 107.568 28.9258 108.061 28.0117C108.553 27.0898 109.229 26.3672 110.088 25.8438C110.955 25.3125 111.936 25.0469 113.029 25.0469C113.764 25.0469 114.447 25.1719 115.08 25.4219C115.713 25.6641 116.275 26.0039 116.768 26.4414V19.4219H120.143V37H116.955L116.873 35.7344C116.381 36.2109 115.807 36.582 115.15 36.8477C114.502 37.1055 113.795 37.2344 113.029 37.2344C111.936 37.2344 110.955 36.9727 110.088 36.4492C109.229 35.918 108.553 35.1953 108.061 34.2812C107.568 33.3594 107.322 32.3125 107.322 31.1406ZM110.815 31.1406C110.815 32.0469 111.096 32.8008 111.658 33.4023C112.221 34.0039 112.932 34.3047 113.791 34.3047C114.65 34.3047 115.361 34.0039 115.924 33.4023C116.486 32.8008 116.768 32.0469 116.768 31.1406C116.768 30.2344 116.486 29.4805 115.924 28.8789C115.361 28.2773 114.65 27.9766 113.791 27.9766C112.932 27.9766 112.221 28.2773 111.658 28.8789C111.096 29.4805 110.815 30.2344 110.815 31.1406Z" fill="#ffffff" fill-opacity="0.9"></path><path d="M126.925 37H123.55V25.2812H126.737L126.819 26.5234C127.647 25.5391 128.768 25.0469 130.182 25.0469C131.987 25.0469 133.264 25.8164 134.014 27.3555C134.405 26.6133 134.932 26.043 135.596 25.6445C136.26 25.2461 137.042 25.0469 137.94 25.0469C139.362 25.0469 140.467 25.5469 141.257 26.5469C142.046 27.5391 142.44 28.9219 142.44 30.6953V37H139.065V30.6953C139.065 29.7891 138.85 29.1094 138.421 28.6562C137.999 28.2031 137.487 27.9766 136.885 27.9766C136.276 27.9766 135.757 28.2109 135.327 28.6797C134.897 29.1484 134.682 29.8477 134.682 30.7773V37H131.307V30.6953C131.307 29.7891 131.092 29.1094 130.663 28.6562C130.241 28.2031 129.729 27.9766 129.128 27.9766C128.518 27.9766 127.999 28.2109 127.569 28.6797C127.139 29.1484 126.925 29.8477 126.925 30.7773V37Z" fill="#ffffff" fill-opacity="0.9"></path><path d="M145.238 33.7773C145.238 32.9961 145.46 32.2969 145.906 31.6797C146.359 31.0625 146.98 30.5742 147.769 30.2148C148.558 29.8555 149.46 29.6758 150.476 29.6758C150.796 29.6758 151.132 29.6953 151.484 29.7344C151.843 29.7734 152.202 29.8242 152.562 29.8867C152.304 28.6133 151.378 27.9766 149.785 27.9766C148.839 27.9766 147.89 28.332 146.937 29.043L145.777 26.1953C146.589 25.8047 147.39 25.5156 148.179 25.3281C148.968 25.1406 149.718 25.0469 150.429 25.0469C151.562 25.0469 152.542 25.2617 153.37 25.6914C154.206 26.1133 154.855 26.7148 155.316 27.4961C155.777 28.2695 156.007 29.1797 156.007 30.2266V37H153.171L152.949 35.7461C152.511 36.207 151.976 36.5703 151.343 36.8359C150.718 37.1016 150.031 37.2344 149.281 37.2344C148.093 37.2344 147.12 36.9141 146.363 36.2734C145.613 35.6328 145.238 34.8008 145.238 33.7773ZM148.613 33.0039C148.613 33.3945 148.761 33.7109 149.058 33.9531C149.363 34.1875 149.761 34.3047 150.253 34.3047C150.925 34.3047 151.488 34.1016 151.941 33.6953C152.402 33.2891 152.632 32.7891 152.632 32.1953V31.9609C152.343 31.8672 152.031 31.793 151.695 31.7383C151.367 31.6836 151.042 31.6562 150.722 31.6562C150.058 31.6562 149.538 31.7734 149.163 32.0078C148.796 32.2422 148.613 32.5742 148.613 33.0039Z" fill="#ffffff" fill-opacity="0.9"></path><path d="M159.191 37V25.2812H162.145L162.309 26.957C163.16 25.6836 164.332 25.0469 165.824 25.0469C166.332 25.0469 166.855 25.125 167.395 25.2812L166.926 28.1992C166.473 28.0508 166.027 27.9766 165.59 27.9766C164.684 27.9766 163.953 28.3125 163.398 28.9844C162.844 29.6484 162.566 30.5977 162.566 31.832V37H159.191Z" fill="#ffffff" fill-opacity="0.9"></path><path d="M168.34 25.2812H170.274V22.3516H173.649V25.2812H176.497V28.2109H173.649V32.5234C173.649 33.0781 173.825 33.5156 174.176 33.8359C174.536 34.1484 174.989 34.3047 175.536 34.3047C175.942 34.3047 176.36 34.2148 176.79 34.0352V36.8008C176.048 37.0898 175.317 37.2344 174.598 37.2344C173.208 37.2344 172.137 36.8633 171.387 36.1211C170.645 35.3711 170.274 34.3008 170.274 32.9102V28.2109H168.34V25.2812Z" fill="#ffffff" fill-opacity="0.9"></path><path d="M179.74 35.3594C179.74 34.7969 179.911 34.3438 180.255 34C180.599 33.6562 181.052 33.4844 181.615 33.4844C182.177 33.4844 182.63 33.6562 182.974 34C183.318 34.3438 183.49 34.7969 183.49 35.3594C183.49 35.9219 183.318 36.375 182.974 36.7188C182.63 37.0625 182.177 37.2344 181.615 37.2344C181.052 37.2344 180.599 37.0625 180.255 36.7188C179.911 36.375 179.74 35.9219 179.74 35.3594Z" fill="#ffffff" fill-opacity="0.9"></path><defs><linearGradient id="paint0_linear" x1="14" y1="17" x2="41" y2="44" gradientUnits="userSpaceOnUse"><stop stop-color="#23B0FF"></stop><stop offset="1" stop-color="#7000FF"></stop></linearGradient><linearGradient id="paint1_linear" x1="0" y1="13" x2="34" y2="47" gradientUnits="userSpaceOnUse"><stop stop-color="#0500FF"></stop><stop offset="1" stop-color="#5CFDD6"></stop></linearGradient></defs></svg> 